# xmcd
#
# Track frame offsets:
#	150
#	19591
#	38705
#	56969
#	70388
#	84202
#	104124
#	125918
#	144287
#	167968
#	188565
#	207956
#
# Disc length: 2968 seconds
#
# Revision: 0
# Processed by: cddbd v1.4PL0 Copyright (c) Steve Scherf et al.
# Submitted via: EasyCDDAExtractor 4.6.9.1
#
DISCID=ad0b960c
DTITLE=France D'Amour - Le Silence Des Roses
DYEAR=2000
DGENRE=Rock
TTITLE0=Je t'aime encore
TTITLE1=Mon bonheur
TTITLE2=Un jour une fois
TTITLE3=Si c'était vrai
TTITLE4=Toute ma religion
TTITLE5=Si j'ai tort
TTITLE6=En silence
TTITLE7=Les sables mouvants
TTITLE8=Dolly...On est comme on est
TTITLE9=Je comprends
TTITLE10=J'attends
TTITLE11=Veille sur moi
EXTD=
EXTT0=
EXTT1=
EXTT2=
EXTT3=
EXTT4=
EXTT5=
EXTT6=
EXTT7=
EXTT8=
EXTT9=
EXTT10=
EXTT11=
PLAYORDER=
